<svg width="200" height="200" viewBox="0 0 200 200" fill="none" xmlns="http://www.w3.org/2000/svg">
<path d="M56.8925 31.0746C57.5773 24.2271 57.9197 20.8034 60.2052 18.735C62.4907 16.6666 65.9315 16.6666 72.8131 16.6666H127.187C134.068 16.6666 137.509 16.6666 139.795 18.735C142.08 20.8034 142.423 24.2271 143.107 31.0746L149.603 96.0335C149.801 98.0068 149.899 98.9934 150.23 99.9175C150.561 100.842 151.111 101.667 152.211 103.317L181.26 146.891C182.173 148.259 182.629 148.944 182.347 149.472C182.064 150 181.241 150 179.596 150H20.4037C18.7587 150 17.9362 150 17.6535 149.472C17.3709 148.944 17.8271 148.259 18.7396 146.891L47.7889 103.317C48.8889 101.667 49.4389 100.842 49.7698 99.9175C50.1007 98.9934 50.1993 98.0068 50.3966 96.0335L56.8925 31.0746Z" fill="white"/>
<path d="M83.9012 171.912C84.8508 172.798 86.9432 173.581 89.854 174.139C92.7647 174.697 96.3311 175 100 175C103.669 175 107.235 174.697 110.146 174.139C113.057 173.581 115.149 172.798 116.099 171.912" stroke="white" stroke-width="10" stroke-linecap="round"/>
</svg>
